<?xml version="1.0" encoding="UTF-8" standalone="no"?>
<!-- Created with Inkscape (http://www.inkscape.org/) -->

<svg
   width="30mm"
   height="30mm"
   viewBox="0 0 30 30"
   version="1.1"
   id="svg1"
   sodipodi:docname="fcross.svg"
   inkscape:version="1.4.2 (ebf0e940d0, 2025-05-08)"
   xmlns:inkscape="http://www.inkscape.org/namespaces/inkscape"
   xmlns:sodipodi="http://sodipodi.sourceforge.net/DTD/sodipodi-0.dtd"
   xmlns:xlink="http://www.w3.org/1999/xlink"
   xmlns="http://www.w3.org/2000/svg"
   xmlns:svg="http://www.w3.org/2000/svg">
  <sodipodi:namedview
     id="namedview1"
     pagecolor="#ffffff"
     bordercolor="#000000"
     borderopacity="0.25"
     inkscape:showpageshadow="2"
     inkscape:pageopacity="0.0"
     inkscape:pagecheckerboard="0"
     inkscape:deskcolor="#d1d1d1"
     inkscape:document-units="mm"
     showgrid="true"
     inkscape:zoom="5.1600837"
     inkscape:cx="10.271151"
     inkscape:cy="56.297536"
     inkscape:window-width="1920"
     inkscape:window-height="1080"
     inkscape:window-x="0"
     inkscape:window-y="0"
     inkscape:window-maximized="1"
     inkscape:current-layer="layer1">
    <inkscape:grid
       id="grid1"
       units="mm"
       originx="0"
       originy="0"
       spacingx="0.99999998"
       spacingy="1"
       empcolor="#0099e5"
       empopacity="0.30196078"
       color="#0099e5"
       opacity="0.14901961"
       empspacing="5"
       enabled="true"
       visible="true" />
  </sodipodi:namedview>
  <defs
     id="defs1">
    <linearGradient
       id="linearGradient5"
       inkscape:collect="always">
      <stop
         style="stop-color:#3662e2;stop-opacity:1;"
         offset="0"
         id="stop5" />
      <stop
         style="stop-color:#5395ff;stop-opacity:1;"
         offset="1"
         id="stop6" />
    </linearGradient>
    <inkscape:path-effect
       effect="mirror_symmetry"
       start_point="0,15"
       end_point="30,15"
       center_point="15,15"
       id="path-effect5"
       is_visible="true"
       lpeversion="1.2"
       lpesatellites=""
       mode="horizontal"
       discard_orig_path="false"
       fuse_paths="false"
       oposite_fuse="false"
       split_items="false"
       split_open="false"
       link_styles="false" />
    <linearGradient
       inkscape:collect="always"
       xlink:href="#linearGradient5"
       id="linearGradient6"
       x1="11.521687"
       y1="30.034559"
       x2="18.462776"
       y2="-0.030604884"
       gradientUnits="userSpaceOnUse" />
  </defs>
  <g
     inkscape:label="Layer 1"
     inkscape:groupmode="layer"
     id="layer1">
    <path
       id="path3"
       style="opacity:1;fill:url(#linearGradient6);stroke:#000000;stroke-width:1.465"
       d="M 4.951119,0.2795695 C 4.8067465,0.28709149 4.6342334,0.37206895 4.4142008,0.58911133 L 0.77101237,4.2322998 c -0.43541688,0.4682194 -0.54679024,0.9828779 -0.0273885,1.5875 L 1.9259806,7.0021566 c -0.7363213,0.3668822 -1.37414383,0.6536862 -1.786971,0.7865153 -1.399747,0.542083 -2.1452319,0.449482 -3.0633789,0.280603 -0.9792898,-0.227483 -2.7838244,-1.6429236 -4.1279134,-2.0686076 -0.399392,-0.12995 -1.2948055,-0.2456192 -1.9941935,-0.050126 -1.4378778,0.401917 -1.3370938,2.7868611 -1.0107908,4.0364461 0.4549202,1.5563426 2.4002034,2.8111896 4.1625364,3.6948646 1.9288715,0.845744 3.923664,1.165626 5.94020586,1.309998 2.13004914,0.0393 4.10258304,-0.321536 5.61257734,-1.075904 2.3123258,-1.09469 2.7171468,-0.464571 2.7171468,-0.464571 0.9693521,1.03814 1.0293323,2.101044 0.063562,3.163115 l -7.67963461,7.679634 c -0.43602757,0.4668 -0.55621472,0.971196 0.16433106,1.574064 l 3.28145345,3.281454 c 0.5285383,0.504464 1.0568946,0.534869 1.5854329,0.04806 l 7.6879028,-7.68842 c 1.130726,-1.026801 2.16887,-0.81226 3.154846,0.09095 l 7.572148,7.572148 c 0.485148,0.428218 1.008736,0.523328 1.596285,0.06408 l 3.51193,-3.51193 c 0.473644,-0.535965 0.35728,-1.001281 -0.02067,-1.435055 l -7.964889,-7.96489 C 20.251428,15.227218 20.613523,14.3511 21.409546,13.541809 L 29.38632,5.5655518 C 29.77534,5.0990662 29.648245,4.706267 29.322758,4.3418538 L 25.551929,0.57102458 C 25.142726,0.21067606 24.779331,0.27492323 24.438302,0.54518636 L 16.50752,8.4764852 C 15.452734,9.3991653 14.448072,9.325418 13.458093,8.4749349 L 12.031307,7.0631348 8.1798625,3.2514811 5.5324788,0.631486 C 5.354927,0.46937046 5.1917397,0.26703284 4.951119,0.2795695 Z"
       sodipodi:nodetypes="scccccccscccccccccccccccccccccccccccs"
       inkscape:export-filename="fcross.png"
       inkscape:export-xdpi="211.58562"
       inkscape:export-ydpi="211.58562" />
  </g>
</svg>
