<?xml version="1.0" encoding="UTF-8" standalone="no"?>
<!-- Created with Inkscape (http://www.inkscape.org/) -->

<svg
   width="30mm"
   height="30mm"
   viewBox="0 0 30 30"
   version="1.1"
   id="svg1"
   inkscape:version="1.4.2 (ebf0e940d0, 2025-05-08)"
   sodipodi:docname="flick.svg"
   xmlns:inkscape="http://www.inkscape.org/namespaces/inkscape"
   xmlns:sodipodi="http://sodipodi.sourceforge.net/DTD/sodipodi-0.dtd"
   xmlns:xlink="http://www.w3.org/1999/xlink"
   xmlns="http://www.w3.org/2000/svg"
   xmlns:svg="http://www.w3.org/2000/svg">
  <sodipodi:namedview
     id="namedview1"
     pagecolor="#ffffff"
     bordercolor="#000000"
     borderopacity="0.25"
     inkscape:showpageshadow="2"
     inkscape:pageopacity="0.0"
     inkscape:pagecheckerboard="0"
     inkscape:deskcolor="#d1d1d1"
     inkscape:document-units="mm"
     showgrid="true"
     inkscape:zoom="3.4065373"
     inkscape:cx="11.155022"
     inkscape:cy="41.53778"
     inkscape:window-width="1181"
     inkscape:window-height="992"
     inkscape:window-x="0"
     inkscape:window-y="0"
     inkscape:window-maximized="1"
     inkscape:current-layer="layer1">
    <inkscape:grid
       id="grid1"
       units="mm"
       originx="0"
       originy="0"
       spacingx="0.99999998"
       spacingy="1"
       empcolor="#0099e5"
       empopacity="0.30196078"
       color="#0099e5"
       opacity="0.14901961"
       empspacing="5"
       enabled="true"
       visible="true" />
  </sodipodi:namedview>
  <defs
     id="defs1">
    <inkscape:path-effect
       effect="spiro"
       id="path-effect6"
       is_visible="true"
       lpeversion="1" />
    <linearGradient
       id="linearGradient3"
       inkscape:collect="always">
      <stop
         style="stop-color:#b6303f;stop-opacity:1;"
         offset="0"
         id="stop3" />
      <stop
         style="stop-color:#dc694e;stop-opacity:1;"
         offset="1"
         id="stop4" />
    </linearGradient>
    <inkscape:path-effect
       effect="spiro"
       id="path-effect3"
       is_visible="true"
       lpeversion="1" />
    <inkscape:path-effect
       effect="mirror_symmetry"
       start_point="0,15"
       end_point="30,15"
       center_point="15,15"
       id="path-effect5"
       is_visible="true"
       lpeversion="1.2"
       lpesatellites=""
       mode="horizontal"
       discard_orig_path="false"
       fuse_paths="false"
       oposite_fuse="false"
       split_items="false"
       split_open="false"
       link_styles="false" />
    <linearGradient
       inkscape:collect="always"
       xlink:href="#linearGradient3"
       id="linearGradient4"
       x1="2.8302338"
       y1="24.12191"
       x2="27.114454"
       y2="5.8224378"
       gradientUnits="userSpaceOnUse" />
  </defs>
  <g
     inkscape:label="Layer 1"
     inkscape:groupmode="layer"
     id="layer1">
    <path
       d="M 14.869893,0.05115967 C 10.980712,0.07790146 7.125887,1.6980036 4.385262,4.457609 1.6446371,7.2172145 0.05112487,11.082939 0.05115967,14.972213 c 3.502e-5,3.914866 1.61539683,7.80538 4.38836263,10.568864 2.7729658,2.763483 6.6690067,4.36563 10.5838497,4.352189 3.889221,-0.01335 7.749514,-1.620158 10.499618,-4.370276 2.750103,-2.750118 4.356876,-6.610397 4.370276,-10.499618 C 29.906812,11.091378 28.290001,7.1789554 25.504903,4.4033488 22.719806,1.6277422 18.801818,0.02412398 14.869893,0.05115967 Z m 0.10232,7.38352863 c 1.969473,0.013333 3.930883,0.7987286 5.337658,2.1771281 1.406776,1.3783996 2.23425,3.3400186 2.199866,5.3092366 -0.03394,1.94406 -0.906184,3.852226 -2.327506,5.179012 -1.421323,1.326786 -3.368024,2.06339 -5.312338,2.050521 C 12.951166,22.137886 11.03909,21.395879 9.6407552,20.081978 8.2424202,18.768077 7.3798637,16.890394 7.332369,14.972213 7.2829756,12.97735 8.1192142,10.984388 9.5492879,9.5926961 10.979362,8.2010047 12.976785,7.42118 14.972213,7.4346883 Z"
       style="display:none;fill:url(#linearGradient4);stroke:#000000;stroke-width:1.465;stroke-dasharray:none"
       id="path6" />
    <path
       style="fill:#abc837;stroke:#000000;stroke-width:1.465;stroke-dasharray:none"
       d="M 0.04982739,15.013958 C -1.9667146,14.869586 -3.9613658,14.550081 -5.8902372,13.704337 c -1.762333,-0.883675 -3.7078013,-2.138657 -4.1627238,-3.694999 -0.326303,-1.2495844 -0.427126,-3.6346026 1.0107538,-4.0365196 0.6993878,-0.1954932 1.5945983,-0.079853 1.9939895,0.050101 1.3440892,0.4256845 3.1487233,1.8412755 4.1280131,2.0687594 0.918147,0.1688787 1.66383,0.2614498 3.06357699,-0.280633 C 1.7327006,7.2996699 6.6469567,4.515862 7.7438487,3.6015511 12.930516,-0.29765972 16.219506,-1.4414864 10.480021,10.523832 8.6576957,12.571173 7.1864817,13.143849 5.6624877,13.938198 4.1524934,14.692566 2.1798764,15.053261 0.04982739,15.013958 Z"
       id="path7"
       sodipodi:nodetypes="cccsccccccc"
       inkscape:export-filename="flick.png"
       inkscape:export-xdpi="96"
       inkscape:export-ydpi="96" />
  </g>
</svg>
