<?xml version="1.0" encoding="UTF-8" standalone="no"?>
<!-- Created with Inkscape (http://www.inkscape.org/) -->

<svg
   width="256mm"
   height="256mm"
   viewBox="0 0 256 256"
   version="1.1"
   id="svg1"
   inkscape:version="1.4.2 (ebf0e940d0, 2025-05-08)"
   sodipodi:docname="settings.svg"
   xmlns:inkscape="http://www.inkscape.org/namespaces/inkscape"
   xmlns:sodipodi="http://sodipodi.sourceforge.net/DTD/sodipodi-0.dtd"
   xmlns:xlink="http://www.w3.org/1999/xlink"
   xmlns="http://www.w3.org/2000/svg"
   xmlns:svg="http://www.w3.org/2000/svg">
  <sodipodi:namedview
     id="namedview1"
     pagecolor="#ffffff"
     bordercolor="#000000"
     borderopacity="0.25"
     inkscape:showpageshadow="2"
     inkscape:pageopacity="0.0"
     inkscape:pagecheckerboard="0"
     inkscape:deskcolor="#d1d1d1"
     inkscape:document-units="mm"
     inkscape:zoom="0.49323376"
     inkscape:cx="303.10172"
     inkscape:cy="487.59841"
     inkscape:window-width="1876"
     inkscape:window-height="992"
     inkscape:window-x="0"
     inkscape:window-y="0"
     inkscape:window-maximized="1"
     inkscape:current-layer="layer1"
     showgrid="true"
     showguides="false">
    <inkscape:grid
       id="grid1"
       units="mm"
       originx="0"
       originy="0"
       spacingx="3.9999999"
       spacingy="3.9999999"
       empcolor="#0099e5"
       empopacity="0.30196078"
       color="#0099e5"
       opacity="0.14901961"
       empspacing="8"
       enabled="true"
       visible="true" />
  </sodipodi:namedview>
  <defs
     id="defs1">
    <linearGradient
       id="linearGradient25"
       inkscape:collect="always">
      <stop
         style="stop-color:#707070;stop-opacity:1;"
         offset="0"
         id="stop25" />
      <stop
         style="stop-color:#9a9a9a;stop-opacity:1;"
         offset="1"
         id="stop26" />
    </linearGradient>
    <linearGradient
       inkscape:collect="always"
       xlink:href="#linearGradient25"
       id="linearGradient26"
       x1="20.38468"
       y1="197.85036"
       x2="235.57744"
       y2="58.102551"
       gradientUnits="userSpaceOnUse" />
  </defs>
  <g
     inkscape:label="Layer 1"
     inkscape:groupmode="layer"
     id="layer1">
    <path
       id="path21"
       style="fill:url(#linearGradient26);stroke:#000000;stroke-width:0.644406"
       d="M 143.79794 0.0046508789 L 112.12494 0.039274089 C 95.976207 0.039274089 96.004993 5.9440049 96.004993 17.721399 L 96.004993 45.402913 C 96.004993 50.618894 94.727635 49.553139 92.082235 46.907731 L 72.90046 27.725956 C 67.71004 22.53553 64.332593 19.095487 60.324483 19.125448 C 57.207063 19.148748 53.708189 21.271217 48.677649 26.301754 L 26.306405 48.722091 C 14.887485 60.141017 19.082703 64.295761 27.410213 72.623991 C 34.538233 79.752631 41.338592 86.554457 47.865812 93.081657 C 50.367002 95.582839 51.086802 96.037032 46.770272 96.037032 L 18.144112 96.037032 C 5.0945666 96.037032 0.0093017578 95.896751 0.0093017578 112.15801 L 0.043924967 143.8305 C 0.043924967 159.9793 5.9481575 159.95047 17.725533 159.95096 C 28.241422 159.95152 38.254002 159.99853 47.848242 159.95303 C 50.493602 159.94043 50.312284 160.47588 48.897274 161.89089 L 27.730607 183.05704 C 18.503182 192.28446 14.808034 195.78148 26.306405 207.27985 L 48.726742 229.6511 C 60.145672 241.07002 64.300422 236.8748 72.628642 228.54729 C 79.757292 221.41927 86.559108 214.61839 93.086308 208.09117 C 95.587488 205.58998 96.041683 204.87018 96.041683 209.18671 L 96.041683 237.81339 C 96.041683 250.86294 95.901557 255.9482 112.16266 255.9482 L 143.83515 255.91358 C 159.98395 255.91358 159.95512 250.00935 159.95561 238.23197 C 159.95617 227.70546 159.95661 217.68348 159.95768 208.08032 C 159.95788 205.62361 160.85002 206.03848 162.11414 207.30259 C 168.8988 214.08726 175.84857 221.0205 183.06531 228.22638 C 192.29273 237.4538 195.78924 241.14947 207.28761 229.6511 L 229.65937 207.23024 C 234.65515 202.23446 236.66209 198.6291 236.64189 195.45629 C 236.61589 191.37698 233.23895 188.01276 228.55452 183.32834 L 210.22903 165.00285 C 207.25046 162.02428 203.97637 159.93081 211.85529 159.93081 C 220.15424 159.93081 228.9079 159.92045 237.81753 159.91375 C 250.86708 159.91375 255.95285 160.05444 255.95285 143.79329 L 255.91823 112.12029 C 255.91823 95.971387 250.01348 96.000342 238.2361 96.000342 L 210.45227 96.000342 C 208.06529 96.000342 204.40316 96.745893 208.87304 92.276021 C 214.34662 86.802431 221.57881 79.554442 228.23103 72.892192 C 237.45845 63.664762 241.15412 60.168266 229.65575 48.669897 L 207.2349 26.298136 C 202.23912 21.302359 198.63375 19.295424 195.46094 19.315617 C 191.38163 19.341577 188.01742 22.718554 183.333 27.402979 L 165.0075 45.728475 C 162.02893 48.707045 159.93546 51.98062 159.93546 44.101701 C 159.93546 35.802758 159.9251 27.04961 159.9184 18.139978 C 159.9184 5.0904313 160.05904 0.0046618789 143.79794 0.0046508789 z M 128.09657 79.844222 A 48.077583 48.077583 0 0 1 176.17426 127.92191 A 48.077583 48.077583 0 0 1 128.09657 175.99959 A 48.077583 48.077583 0 0 1 80.018888 127.92191 A 48.077583 48.077583 0 0 1 128.09657 79.844222 z " />
  </g>
</svg>
